<?xml version="1.0" standalone="no"?>
<!DOCTYPE svg PUBLIC "-//W3C//DTD SVG 20010904//EN"
 "http://www.w3.org/TR/2001/REC-SVG-20010904/DTD/svg10.dtd">
<svg version="1.0" xmlns="http://www.w3.org/2000/svg"
 width="517.000000pt" height="515.000000pt" viewBox="0 0 517.000000 515.000000"
 preserveAspectRatio="xMidYMid meet">

<g transform="translate(0.000000,515.000000) scale(0.100000,-0.100000)"
fill="#000000" stroke="none">
<path d="M2295 5010 c-365 -49 -724 -183 -1025 -383 -155 -103 -209 -147 -347
-281 -461 -445 -715 -1011 -740 -1651 -5 -145 9 -421 23 -435 3 -2 175 -8 382
-13 345 -8 409 -13 388 -34 -7 -7 -700 -5 -743 3 -23 4 -24 3 -17 -33 40 -229
128 -489 235 -693 76 -144 60 -133 193 -134 98 -1 117 -4 135 -21 21 -18 22
-18 67 3 24 12 51 22 58 22 7 0 26 10 41 22 20 16 39 21 67 19 25 -2 50 5 72
18 18 12 43 21 54 21 11 0 44 11 74 25 29 14 62 25 73 25 11 0 32 6 47 14 33
18 118 42 176 50 24 4 66 18 92 31 49 25 49 25 60 5 6 -11 8 -25 5 -30 -4 -6
2 -30 13 -53 11 -23 23 -64 27 -92 4 -27 15 -69 26 -92 10 -23 19 -49 19 -57
0 -9 4 -16 8 -16 5 0 19 -19 32 -42 13 -24 34 -51 47 -61 18 -15 21 -22 13
-37 -7 -13 -7 -21 0 -25 10 -6 14 2 10 20 -4 21 16 -8 26 -38 7 -22 23 -38 47
-50 20 -9 37 -22 37 -27 0 -6 11 -20 25 -32 14 -12 25 -32 25 -45 0 -15 6 -23
18 -23 14 0 15 2 2 10 -13 9 -13 10 1 10 20 0 64 -46 51 -54 -6 -3 -12 1 -16
9 -3 8 -16 15 -28 14 -15 0 -18 -3 -8 -6 8 -4 21 -12 28 -20 8 -7 23 -11 37
-7 12 3 26 1 29 -5 4 -6 -1 -11 -11 -12 -14 0 -14 -2 5 -9 13 -6 22 -19 23
-32 1 -19 3 -18 8 6 l6 29 30 -39 c16 -21 29 -43 27 -47 -1 -5 2 -6 8 -2 5 3
10 0 10 -8 0 -7 6 -14 14 -14 8 0 14 3 13 6 -4 13 15 10 58 -11 25 -12 45 -26
45 -30 0 -4 12 -8 26 -8 42 0 121 -30 145 -56 12 -13 27 -24 33 -24 5 0 20
-10 33 -22 13 -12 38 -31 57 -42 19 -12 60 -38 91 -59 72 -48 105 -61 118 -48
7 7 17 7 30 0 13 -8 22 -8 30 0 17 17 27 13 27 -8 0 -25 17 -36 34 -22 7 6 20
9 27 7 47 -16 80 -14 95 7 16 22 16 21 10 -10 -3 -18 -9 -46 -12 -63 -8 -36 7
-40 29 -6 12 18 29 26 67 31 42 6 53 12 66 36 8 16 23 29 33 29 11 0 26 3 35
6 14 5 16 -3 16 -56 0 -67 16 -78 33 -24 13 39 26 54 48 54 9 0 24 6 31 13 7
7 30 26 52 42 21 16 51 52 67 80 16 29 46 67 67 86 20 19 43 44 50 55 7 10 10
14 7 8 -2 -7 2 -17 10 -24 13 -11 19 -5 37 39 23 53 38 66 38 31 0 -14 7 -20
23 -20 37 0 147 71 184 119 18 24 50 52 71 61 42 19 87 72 98 115 7 27 62 89
128 144 23 18 30 20 37 10 5 -8 9 -19 9 -25 0 -16 90 -6 111 12 8 8 29 14 46
14 36 0 53 18 126 130 147 228 296 586 332 797 l7 42 -164 3 c-137 3 -163 5
-163 18 0 13 26 15 167 18 148 2 167 4 172 20 21 72 30 205 30 422 0 277 -17
408 -80 639 -167 608 -580 1140 -1134 1459 -257 147 -545 246 -847 291 -114
17 -184 21 -369 20 -126 -1 -256 -5 -289 -9z m551 -820 c8 0 12 -4 9 -10 -10
-17 16 -11 54 12 27 17 33 18 22 5 -11 -14 -11 -17 0 -18 11 0 11 -2 1 -6 -7
-2 -17 -14 -23 -25 -10 -18 -9 -20 7 -13 11 4 28 9 40 10 17 2 20 -1 16 -21
-4 -22 -2 -23 27 -18 25 5 31 3 31 -10 0 -17 3 -17 60 2 10 3 8 0 -3 -10 -18
-13 -18 -15 -2 -28 15 -12 21 -12 46 2 24 14 29 15 29 3 0 -8 3 -14 8 -14 24
4 34 -3 29 -21 -4 -15 0 -20 14 -20 10 0 19 6 19 13 0 9 2 9 8 0 9 -15 68 -2
65 14 -1 5 5 10 13 10 12 0 12 -3 0 -22 -13 -20 -13 -21 15 -17 16 2 29 9 29
15 0 6 3 7 6 4 4 -4 1 -14 -7 -23 -13 -16 -11 -17 18 -11 18 3 35 2 38 -3 4
-6 -14 -10 -44 -10 -27 0 -52 -4 -56 -9 -7 -12 57 -25 84 -18 15 4 18 1 13
-12 -8 -23 -33 -40 -58 -41 -12 0 -27 -6 -33 -14 -10 -12 -6 -14 23 -12 20 2
36 -1 36 -7 0 -9 17 -7 54 9 14 5 17 4 12 -4 -5 -8 0 -12 14 -12 20 0 50 -21
50 -34 0 -10 -38 -7 -44 3 -4 5 0 12 6 14 9 4 8 6 -3 6 -9 1 -21 -10 -27 -24
-16 -34 -16 -33 12 -28 13 3 33 0 45 -6 17 -10 20 -9 15 4 -4 9 -1 15 7 15 8
0 24 3 37 6 19 5 22 2 22 -20 0 -20 -5 -26 -22 -27 -22 0 -22 -1 -3 -8 11 -5
32 -5 48 0 16 5 25 4 22 -2 -4 -5 -15 -9 -27 -9 -17 0 -18 -2 -8 -15 8 -9 8
-15 2 -15 -6 0 -12 5 -14 12 -3 8 -12 4 -26 -10 -12 -12 -29 -22 -37 -22 -8 0
-15 -4 -15 -10 0 -13 67 -13 75 1 4 6 13 8 21 5 7 -3 16 -1 19 4 4 6 11 10 16
10 15 0 -17 -30 -33 -31 -7 0 0 -5 17 -11 16 -6 36 -17 44 -25 11 -12 9 -13
-15 -8 l-29 5 30 -14 c16 -8 43 -12 60 -9 23 4 36 -1 54 -21 23 -25 24 -26 4
-26 -17 0 -19 -5 -15 -27 3 -16 12 -38 20 -51 31 -47 13 -136 -38 -195 -19
-20 -35 -44 -36 -52 -1 -8 -9 -22 -18 -31 -9 -8 -14 -20 -11 -25 4 -5 1 -9 -5
-9 -13 0 -2 -72 13 -81 6 -4 5 -9 -1 -13 -12 -7 -12 -46 -1 -62 10 -13 -17
-54 -36 -54 -7 0 -16 -8 -20 -18 -9 -30 -112 -76 -163 -74 -24 1 -53 -3 -63
-9 -14 -7 -19 -6 -19 3 -1 10 -4 9 -13 -2 -12 -15 -87 -23 -87 -9 0 12 -38 -2
-44 -17 -3 -8 -13 -14 -22 -14 -11 0 -14 5 -10 16 4 11 1 14 -12 12 -12 -2
-17 -12 -16 -36 1 -17 -2 -32 -7 -32 -5 0 -7 -24 -5 -52 2 -29 -3 -78 -11
-108 -9 -30 -18 -68 -20 -85 -3 -16 -12 -34 -20 -38 -10 -6 -11 -12 -4 -20 13
-16 6 -78 -18 -170 -11 -41 -20 -90 -20 -108 1 -19 -4 -65 -10 -104 -11 -75
-12 -76 -96 -128 l-45 -29 -50 45 c-88 79 -171 96 -206 42 -28 -43 -6 -75 65
-90 28 -6 33 -4 28 7 -11 30 7 39 57 28 59 -13 96 -37 96 -61 0 -26 -12 -24
-44 6 -30 27 -46 32 -46 13 0 -7 16 -23 36 -36 21 -14 34 -30 32 -40 -1 -9 1
-23 5 -29 6 -9 2 -13 -10 -13 -10 0 -31 -7 -47 -15 -35 -19 -33 -19 -39 7 -4
15 -10 19 -19 12 -7 -6 -22 -10 -33 -9 -11 0 -29 -4 -39 -8 -15 -8 -18 -6 -13
7 7 18 -1 20 -22 7 -8 -5 -11 -16 -8 -24 4 -10 -2 -14 -19 -14 -13 0 -21 3
-19 7 3 4 -6 7 -20 6 -49 -2 -29 -30 51 -71 50 -25 71 -33 44 -15 -9 6 -10 10
-3 10 6 0 19 -7 27 -16 17 -17 21 -28 7 -20 -5 3 -11 -3 -14 -13 -4 -16 -10
-17 -58 -8 -69 12 -83 19 -87 46 -5 32 -31 27 -29 -6 2 -27 0 -28 -47 -28 -33
0 -51 5 -54 14 -3 8 0 11 7 7 6 -4 11 -2 11 3 0 6 -5 11 -11 11 -6 0 -8 9 -4
20 5 15 3 18 -9 14 -9 -3 -16 -1 -16 5 0 6 7 11 15 11 8 0 15 5 15 10 0 6 -5
10 -12 10 -6 0 -19 7 -28 15 -14 13 -22 14 -43 4 -14 -6 -28 -21 -31 -32 -4
-17 -7 -18 -20 -8 -13 11 -22 10 -53 -6 -21 -11 -40 -29 -41 -39 -2 -10 -11
-25 -20 -32 -14 -10 -14 -14 -3 -21 10 -7 8 -12 -10 -25 -13 -9 -17 -16 -10
-16 10 0 12 -11 8 -43 -7 -52 5 -70 40 -56 13 5 27 8 31 7 12 -4 62 34 62 47
0 14 27 39 52 48 11 4 29 -3 45 -17 16 -12 43 -28 61 -36 18 -7 37 -21 42 -31
6 -9 28 -25 50 -35 22 -10 40 -22 40 -26 0 -5 12 -20 28 -33 15 -13 22 -25 15
-25 -6 0 -9 -8 -6 -19 6 -23 -13 -37 -31 -22 -13 11 -34 -5 -84 -64 -15 -17
-8 -35 14 -35 8 0 14 -5 14 -11 0 -5 5 -7 10 -4 16 10 99 -6 115 -21 7 -8 21
-14 30 -14 16 0 16 -2 1 -24 -9 -14 -13 -32 -10 -40 3 -9 2 -16 -4 -16 -5 0
-13 -7 -16 -16 -4 -11 -2 -15 8 -11 10 4 12 0 9 -14 -5 -20 -37 -26 -48 -10
-7 12 -65 -19 -65 -35 0 -15 -74 -36 -96 -27 -11 4 -15 3 -10 -5 4 -7 -1 -10
-14 -9 -11 1 -20 6 -20 11 0 5 -3 6 -7 3 -3 -4 -14 0 -24 9 -16 14 -18 14 -24
-5 -3 -12 -12 -21 -18 -22 -7 0 -22 -2 -34 -5 -14 -2 -23 1 -23 9 0 6 -7 3
-15 -7 -15 -19 -15 -19 -15 4 0 21 -2 22 -12 8 -16 -20 -63 -6 -55 16 4 9 -3
13 -21 12 -20 -1 -27 5 -34 29 -5 17 -7 37 -4 46 2 12 -3 15 -21 13 -14 -1
-27 4 -30 12 -3 8 -9 12 -13 9 -4 -3 -11 2 -14 11 -3 8 -10 13 -15 10 -5 -3
-12 1 -15 10 -3 8 -18 19 -33 25 -25 8 -28 14 -27 52 1 23 5 51 9 62 l8 20
-16 -20 c-14 -17 -16 -17 -17 -4 0 9 -6 17 -12 16 -47 -1 -51 2 -45 39 8 45
12 50 31 34 13 -10 18 -9 30 3 8 8 12 17 9 21 -4 3 1 6 11 6 9 0 14 -4 11 -10
-3 -5 -1 -10 4 -10 6 0 11 11 11 25 0 13 8 29 18 35 14 8 12 9 -10 4 -22 -5
-28 -3 -28 11 0 9 -5 13 -10 10 -7 -4 -6 -13 1 -26 6 -12 8 -23 5 -26 -10 -10
-40 30 -42 56 -1 14 -2 26 -3 26 -13 0 -16 85 -4 94 4 3 9 14 9 23 1 14 -6 18
-32 18 -19 0 -34 -5 -34 -11 0 -5 5 -7 10 -4 15 9 12 -8 -6 -34 -11 -15 -13
-26 -6 -30 5 -3 8 -23 6 -43 -2 -24 1 -38 8 -38 6 0 8 -3 5 -7 -10 -9 -47 27
-48 46 0 10 -2 12 -6 4 -2 -7 -8 -13 -13 -13 -8 0 -24 57 -21 78 2 10 -5 9
-23 -3 -28 -19 -28 -19 -41 45 -8 40 -15 124 -8 98 2 -10 10 -15 19 -11 10 3
14 -2 13 -18 0 -22 -1 -22 -8 -5 -6 15 -10 16 -15 7 -8 -13 11 -61 24 -61 10
0 11 118 0 125 -6 3 -10 -3 -10 -16 0 -26 -10 -20 -14 8 -2 10 3 23 11 28 12
9 10 11 -6 11 -14 0 -21 -7 -22 -21 -1 -16 -2 -16 -6 -3 -2 9 1 26 7 37 7 14
7 21 0 21 -5 0 -9 3 -9 8 1 4 1 18 0 32 -1 19 -3 22 -10 11 -7 -11 -11 -5 -16
23 -7 33 -9 35 -21 19 -12 -16 -13 -11 -14 37 -1 30 -5 75 -9 99 -9 46 -5 75
9 66 5 -3 13 3 19 12 9 16 10 16 11 -4 0 -12 5 -23 11 -25 9 -3 9 -9 0 -26 -6
-11 -13 -47 -15 -79 -5 -69 8 -50 18 27 4 30 9 65 11 78 2 12 -1 22 -7 22 -6
0 -7 15 -3 39 7 40 -7 81 -26 81 -6 0 -3 -7 5 -16 17 -17 21 -34 8 -34 -18 0
-41 36 -36 55 3 12 -3 29 -15 41 -13 14 -16 25 -10 31 10 10 17 33 18 61 1 7
6 10 13 6 8 -5 9 -2 3 12 -10 25 -6 106 6 118 5 6 9 24 9 40 1 33 19 117 40
182 20 60 114 268 126 279 11 9 43 97 45 120 0 6 8 19 18 30 10 11 17 28 16
38 -2 10 5 27 16 38 22 22 25 39 7 39 -7 0 -14 11 -14 25 -2 21 2 25 16 20 10
-3 21 -1 25 5 3 5 1 10 -6 10 -8 0 -8 4 1 15 7 8 16 13 20 10 4 -3 14 3 21 13
13 15 12 16 -3 3 -10 -7 -18 -12 -19 -10 -7 30 -3 59 10 79 9 13 11 21 4 17
-8 -5 -8 -1 0 18 13 27 27 33 27 13 0 -7 5 -5 11 5 6 10 8 23 5 30 -2 7 -5 4
-5 -6 -1 -11 -6 -15 -13 -11 -6 4 -17 -1 -24 -11 -8 -10 -17 -15 -21 -12 -3 4
7 20 22 36 16 15 34 43 40 62 14 42 39 53 29 13 -5 -18 -3 -25 4 -20 5 3 13
24 17 46 4 25 12 40 21 40 8 0 14 6 14 14 0 18 30 75 51 95 9 9 23 42 33 74
10 33 23 57 31 57 7 0 18 12 24 28 34 81 56 100 136 122 28 7 55 16 60 20 6 4
23 10 39 14 20 5 26 10 18 15 -18 11 2 25 59 40 41 11 50 11 72 -4 14 -9 27
-12 29 -7 1 5 14 13 27 17 16 5 21 4 17 -4 -8 -12 47 -5 74 10 10 5 16 3 18
-7 2 -8 10 -14 18 -14z m-1376 -35 c60 -31 60 -83 0 -104 -77 -26 -159 60 -98
103 28 20 61 20 98 1z m1600 -20 c4 3 10 -1 13 -9 7 -19 -39 -28 -53 -10 -8 9
-6 15 7 23 11 6 19 6 21 0 2 -5 7 -7 12 -4z m-70 -10 c-7 -9 -15 -13 -17 -11
-7 7 7 26 19 26 6 0 6 -6 -2 -15z m484 -200 c-4 -8 -10 -15 -15 -15 -18 0 -24
-2 -36 -11 -8 -7 -10 -5 -6 10 3 12 8 19 12 17 3 -2 15 0 26 5 11 4 21 8 22 8
1 1 0 -6 -3 -14z m86 -40 c-7 -9 -15 -13 -17 -11 -7 7 7 26 19 26 6 0 6 -6 -2
-15z m-1663 -662 c-12 -13 -15 -13 -14 -2 2 8 7 21 12 29 7 11 10 11 13 1 2
-7 -3 -20 -11 -28z m-27 -65 c0 -19 -2 -20 -10 -8 -13 19 -13 30 0 30 6 0 10
-10 10 -22z m-1216 -34 c9 -3 16 -10 16 -15 0 -16 -61 -40 -93 -37 -46 4 -41
30 8 44 49 15 50 15 69 8z m1033 -119 c11 -8 30 -32 41 -54 l20 -39 -25 -78
c-14 -44 -27 -84 -29 -91 -1 -7 -20 -17 -41 -23 -51 -16 -76 -51 -76 -109 0
-25 2 -55 6 -66 3 -11 6 -24 6 -28 1 -5 6 -5 11 -2 6 3 10 21 10 38 0 33 23
77 41 77 14 0 11 -31 -16 -162 -14 -67 -28 -152 -32 -190 -5 -59 -8 -68 -26
-68 -16 0 -17 -2 -7 -15 7 -9 10 -18 6 -22 -12 -12 -11 -12 -77 235 -16 61
-19 99 -16 240 3 164 4 168 37 245 48 113 108 153 167 112z m1748 -555 c10
-16 -12 -12 -29 6 -9 8 -16 18 -16 20 0 7 38 -15 45 -26z m672 -105 c29 -20
19 -45 -17 -45 -27 0 -60 22 -60 39 0 25 45 28 77 6z m-637 -135 c-13 -8 -12
-12 6 -29 14 -12 26 -16 35 -11 15 10 32 3 24 -11 -9 -13 39 -11 53 3 9 9 12
8 12 -4 0 -9 -7 -18 -15 -22 -8 -3 -15 -12 -15 -21 0 -8 -9 -15 -20 -15 -11 0
-23 -6 -25 -12 -19 -54 -28 -71 -32 -61 -7 19 -31 -8 -26 -28 3 -11 -5 -24
-20 -34 -14 -9 -24 -24 -22 -33 1 -9 -2 -23 -8 -29 -6 -9 -6 -13 2 -13 6 0 11
-4 11 -10 0 -15 -47 -12 -47 3 0 6 -6 50 -12 97 -9 58 -9 94 -2 112 5 14 7 29
3 34 -4 4 1 4 11 1 9 -4 17 -2 17 3 0 5 7 7 14 4 8 -3 25 4 37 15 22 21 22 21
3 36 -16 13 -17 16 -4 25 8 5 20 10 25 10 6 0 3 -5 -5 -10z m40 -20 c0 -5 -4
-10 -10 -10 -5 0 -10 5 -10 10 0 6 5 10 10 10 6 0 10 -4 10 -10z m450 -18 c27
-21 20 -42 -14 -42 -32 0 -61 24 -53 44 8 21 39 20 67 -2z m-2263 -329 c-3
-10 -5 -2 -5 17 0 19 2 27 5 18 2 -10 2 -26 0 -35z m1121 -192 c29 -24 28 -29
-5 -23 -31 5 -53 19 -53 33 0 16 36 10 58 -10z m106 -17 c3 -8 2 -12 -4 -9 -6
3 -10 10 -10 16 0 14 7 11 14 -7z m-364 -49 c7 4 18 -2 26 -14 8 -12 24 -21
35 -21 12 0 19 -5 16 -12 -5 -16 -35 -11 -54 8 -8 8 -23 19 -34 24 -10 6 -19
16 -19 23 0 8 3 8 9 -2 5 -7 14 -10 21 -6z m-644 -111 c-1 -17 -4 -20 -13 -12
-17 14 -16 35 1 35 8 0 13 -10 12 -23z m-30 -9 c9 -23 -5 -37 -22 -21 -8 8
-14 19 -14 25 0 16 30 13 36 -4z m74 -25 c0 -5 -4 -10 -10 -10 -5 0 -10 5 -10
10 0 6 5 10 10 10 6 0 10 -4 10 -10z m-43 -132 c-3 -7 -5 -2 -5 12 0 14 2 19
5 13 2 -7 2 -19 0 -25z m43 -25 c0 -43 -7 -41 -15 5 -3 19 -1 32 5 32 5 0 10
-16 10 -37z m648 -213 c-7 -11 -15 -15 -17 -9 -2 6 3 15 10 20 20 12 21 11 7
-11z"/>
<path d="M3435 3770 c-8 -13 15 -13 35 0 12 8 11 10 -7 10 -12 0 -25 -4 -28
-10z"/>
<path d="M3543 3643 c9 -2 23 -2 30 0 6 3 -1 5 -18 5 -16 0 -22 -2 -12 -5z"/>
<path d="M2020 3481 c0 -6 4 -13 10 -16 6 -3 7 1 4 9 -7 18 -14 21 -14 7z"/>
<path d="M2354 3134 c-29 -14 -40 -23 -86 -72 -16 -17 -16 -18 0 -19 45 -3 84
-13 104 -27 25 -18 42 -21 33 -6 -3 6 -3 10 2 11 4 0 18 2 31 3 12 2 22 -1 22
-5 0 -11 71 -50 81 -44 5 4 9 4 9 1 0 -7 -61 -40 -75 -42 -5 0 -18 -4 -27 -7
-38 -14 -48 -16 -48 -9 0 4 -31 8 -69 7 -38 0 -67 -3 -64 -7 2 -5 -8 -8 -22
-8 -17 0 -24 4 -19 11 5 9 -1 10 -20 5 -30 -7 -35 8 -8 23 15 9 15 10 -5 11
-17 0 -23 -6 -23 -21 0 -13 -10 -23 -30 -30 -40 -15 -38 -30 2 -18 46 13 69
12 45 -2 -11 -6 -25 -12 -32 -13 -7 -1 -20 -8 -29 -15 -9 -7 -16 -11 -16 -7 0
4 -11 -1 -24 -10 -26 -17 -25 -39 2 -61 9 -7 12 -13 6 -13 -26 -1 26 -20 54
-20 44 0 73 -16 65 -36 -8 -21 21 -49 77 -73 27 -12 53 -29 59 -39 5 -9 13
-14 16 -10 7 6 25 -10 68 -61 20 -25 21 -31 4 -31 -17 0 -16 -38 1 -45 7 -2
15 2 18 10 4 10 12 12 29 5 17 -6 27 -5 36 6 10 12 14 12 20 2 7 -10 9 -9 9 5
0 9 -5 17 -12 17 -6 0 -9 3 -6 6 4 3 9 4 12 2 3 -1 12 6 21 17 12 14 15 15 12
4 -3 -9 -2 -22 3 -29 6 -9 10 -7 15 9 7 22 20 27 30 11 3 -5 1 -10 -4 -10 -6
0 -11 -5 -11 -11 0 -15 79 32 105 63 13 15 25 25 28 22 8 -8 27 55 21 70 -3 7
3 16 13 19 10 4 25 11 33 16 8 5 29 15 47 22 17 7 39 26 48 41 9 16 25 28 36
28 25 0 89 58 89 80 0 25 -65 90 -91 92 -13 0 -28 2 -34 3 -5 2 -16 3 -22 4
-7 0 -13 6 -13 12 0 15 -26 39 -43 39 -8 0 -46 15 -83 34 -38 19 -90 40 -116
47 -27 7 -48 17 -48 21 0 5 -13 7 -30 6 -16 -1 -30 -6 -30 -10 0 -4 -4 -8 -10
-8 -5 0 -10 7 -10 15 0 34 -92 46 -146 19z m83 0 c-3 -3 -12 -4 -19 -1 -8 3
-5 6 6 6 11 1 17 -2 13 -5z m-117 -69 c-7 -8 -16 -12 -21 -9 -13 8 -1 24 18
24 13 0 13 -3 3 -15z m-110 -215 c0 -5 -12 -10 -27 -9 l-28 1 25 8 c14 4 26 8
28 9 1 1 2 -3 2 -9z m157 -116 c-3 -3 -12 -4 -19 -1 -8 3 -5 6 6 6 11 1 17 -2
13 -5z m48 -14 c3 -5 1 -10 -4 -10 -6 0 -11 5 -11 10 0 6 2 10 4 10 3 0 8 -4
11 -10z"/>
<path d="M2162 3026 c-9 -5 -21 -15 -25 -23 -4 -7 -16 -13 -25 -13 -15 0 -15
-2 -2 -10 20 -13 53 -13 45 0 -10 16 53 12 86 -6 17 -8 33 -13 35 -11 3 3 -13
13 -35 23 -49 23 -51 32 -8 36 30 3 29 4 -11 9 -23 2 -50 0 -60 -5z"/>
<path d="M2081 2984 c0 -11 3 -14 6 -6 3 7 2 16 -1 19 -3 4 -6 -2 -5 -13z"/>
<path d="M3125 2810 c3 -5 8 -10 11 -10 2 0 4 5 4 10 0 6 -5 10 -11 10 -5 0
-7 -4 -4 -10z"/>
<path d="M2370 2463 c0 -7 7 -13 15 -13 8 0 15 6 15 13 0 8 -7 14 -15 14 -8 0
-15 -6 -15 -14z"/>
<path d="M2624 2210 c-6 -6 -29 -13 -50 -14 -21 -2 -42 -4 -46 -5 -4 -1 -15
-15 -23 -32 -12 -22 -22 -29 -38 -27 -12 2 -22 -3 -23 -9 -1 -7 -2 -17 -3 -23
0 -5 -8 -10 -16 -10 -8 0 -15 -7 -15 -16 0 -9 -6 -14 -13 -11 -8 3 -14 -4 -15
-19 -1 -19 3 -24 21 -24 18 0 19 -2 7 -10 -9 -6 -10 -10 -3 -10 6 0 19 7 27
16 9 8 16 11 16 5 0 -6 21 9 46 34 25 25 54 45 64 45 18 0 60 48 60 69 0 5 8
14 18 20 12 7 14 13 7 20 -8 8 -14 8 -21 1z"/>
<path d="M2597 2104 c-4 -4 -7 -14 -7 -23 0 -11 3 -12 11 -4 6 6 10 16 7 23
-2 6 -7 8 -11 4z"/>
<path d="M1785 1960 c-3 -5 -1 -10 4 -10 6 0 11 5 11 10 0 6 -2 10 -4 10 -3 0
-8 -4 -11 -10z"/>
<path d="M1772 1920 c0 -14 2 -19 5 -12 2 6 2 18 0 25 -3 6 -5 1 -5 -13z"/>
<path d="M1756 1853 c-6 -14 -5 -15 5 -6 7 7 10 15 7 18 -3 3 -9 -2 -12 -12z"/>
<path d="M1841 1682 c-17 -31 -13 -40 5 -14 9 13 14 26 11 29 -3 2 -10 -4 -16
-15z"/>
<path d="M2010 1641 c0 -9 30 -24 36 -18 2 1 -6 8 -16 15 -11 7 -20 8 -20 3z"/>
<path d="M1987 1583 c-18 -17 10 -37 38 -27 23 9 18 23 -7 16 -14 -3 -19 -2
-14 6 8 13 -6 17 -17 5z"/>
<path d="M1593 2943 c-15 -3 -26 -17 -36 -46 -8 -23 -20 -58 -27 -77 -19 -51
-23 -115 -10 -140 11 -20 16 -12 66 89 35 72 61 112 74 116 l20 6 -21 30 c-20
29 -24 30 -66 22z"/>
<path d="M3467 2084 c7 -3 10 -13 7 -22 -5 -15 -4 -16 8 -1 7 9 20 18 28 22 8
3 -1 5 -20 5 -19 0 -30 -2 -23 -4z"/>
<path d="M970 943 c0 -62 41 -185 57 -170 4 4 -17 96 -36 155 -5 18 -10 35
-10 38 1 3 -2 8 -5 12 -3 3 -6 -13 -6 -35z"/>
<path d="M1466 905 c15 -108 127 -458 159 -502 22 -28 -40 195 -86 309 -22 55
-48 130 -59 166 -14 45 -18 54 -14 27z"/>
<path d="M1980 932 c0 -12 19 -26 26 -19 2 2 -2 10 -11 17 -9 8 -15 8 -15 2z"/>
</g>
</svg>
